<svg xmlns="http://www.w3.org/2000/svg" version="1.1" xmlns:xlink="http://www.w3.org/1999/xlink" xmlns:svgjs="http://svgjs.dev/svgjs" width="1000" height="1000" viewBox="0 0 1000 1000"><rect width="1000" height="1000" fill="#000000"></rect><g transform="matrix(0.7,0,0,0.7,150.00000546874986,106.25)"><svg viewBox="0 0 320 360" data-background-color="#000000" preserveAspectRatio="xMidYMid meet" height="1125" width="1000" xmlns="http://www.w3.org/2000/svg" xmlns:xlink="http://www.w3.org/1999/xlink"><g id="tight-bounds" transform="matrix(1,0,0,1,0.0000025000000505315256,0)"><svg viewBox="0 0 320 360" height="360" width="320"><g><svg></svg></g><g><svg viewBox="0 0 320 360" height="360" width="320"><g><path transform="translate(-19.44751,3.1739) scale(3.53591,3.53591)" d="M67.6 10.7c0.2 0 1.8 0.8 2.7 1.1-0.3 0.1-1-0.2-1.8-0.5 0.2 0 0.6 0.1 1 0.3-0.2-0.2-1.7-0.7-1.9-0.9M52.7 7.6c0.3-0.1 3.8 0.4 5.4 0.5 0.1-0.1-0.2-0.1-0.6-0.2 0.5-0.1 1.5 0.2 2.2 0.3-2.1 0.1-4.4-0.5-6.4-0.3-0.7 0-0.2-0.2-0.6-0.3M49.8 7.6c1.8 0 3.2 0 0.6 0.2-0.3-0.1-0.7-0.1-0.6-0.2M78.1 15.9c0.2 0 1 0.9 1.4 1.2-0.1 0.1-0.9-0.7-1.3-1 0.1 0.1 0 0-0.1-0.2M76.1 14.6c-0.8-0.7-1.1-0.7-1.2-1.1 0.7 0.4 1.2 0.8 1.2 1.1M63.2 8.3c0.1-0.1 0.3 0.1 0.8 0.2-0.6-0.1-0.5 0-0.3 0.2-0.7-0.1-0.9-0.2-0.7-0.4 0.4 0.2 0.5 0.1 0.2 0M34.8 9.5c0-0.1 0.4-0.3 0.7-0.4-0.3 0.2-0.2 0.3 0.3 0.1 0 0.1-0.6 0.3-1 0.5 0.2-0.1 0.4-0.4 0-0.2M65.2 7.3c-0.3 0.1-1.4-0.5-2.5-0.7-0.6-0.2 2.4 0.5 2.5 0.7M6.2 56.7c0.6 2.5 0.2 2.4 0 0M6.3 41.7c0.1-0.4 0.2-1.5 0.3-1.4-0.3 2.4-0.8 3.5-0.9 5.3 0.3-1.6-0.1 0.9-0.2 1.5 0.1 0.8 0.1-0.5 0.3-0.3 0.2 0.3-0.4 4.5-0.2 2.2-0.2 2.1 0 4.4 0.4 5-0.5 3.2 2 10.4 2.5 11.9 0.1 0.1 0-0.5 0.2-0.1 0.2 1.3 1.1 2.2 1.4 3.6 0.3 0.4 1.5 2.6 1.7 3.1 0.4 0.8 0.6 0.7 1 1.5 1.2 2.3 3.1 4.5 4.9 6.6 5.8 6.8 14.7 12.4 24.6 14.4 9.9 2.1 20.3 0.6 28.4-3.3 0.5-0.3 0.4-0.4 1-0.6 2.8-0.9 6.2-3.8 8.1-4.9 0.9-1 3.3-2.7 3.6-3.7 1.7-1.4 3.4-3.7 4.3-5.2 0.5-0.8 0.9-0.8 1.1-1.3-0.1 0 1.6-2.1 2.1-3.3-0.2 0-0.5 0.6-0.5 0 3.6-6.9 5.6-16.2 4.5-22.6 0.2 7.9-1.8 16.7-5.6 22.3-1.7 3.6-5.2 7.5-8.4 10.3-0.5 0.5-1 1.1-1.6 1.5-1.9 1.6-4 2.9-6.2 4.1-5.2 2.9-11 5.4-17.8 5.5 11.7-1 22.2-6.9 28-14.1-4.4 4.3-6.3 6-11.2 8.5-0.4 0.7-3.7 2.1-5.9 2.7 1.3-0.6 4-1.6 4.9-2.4-7.3 3.5-15.4 5.5-23 4.4 2.9 0 7 0.1 10.9-0.6 0.6-0.2 0.9-0.4 1.6-0.5 7.6-1.7 14.9-5.4 20.1-10.6-3 2.7-7.5 5.9-10.4 6.9 2.7-1.5 7.6-4.4 9.2-6.6-3.2 3.2-9.2 6.4-13 7.8-0.6 0.1 0.4-0.4-0.6 0-1.2 0.3-0.7 0.3-1 0.5-4.6 1.3-9.9 2.4-14.3 2-0.8-0.1-1.1-0.3-1.8-0.3-0.8-0.1-1.5-0.1-2.4-0.1-3.5-0.4-7.3-1.8-10.1-3-1.5-0.7-3-1.2-4.5-2.1-1.2-0.7-2.2-1.5-3.2-2.3-3.8-2.8-7-5.6-10-9.6-5.4-7.5-8.2-16.9-7.8-26.2 0.4-9.3 4.1-18.4 10-25.1-0.3 0.3 0.4-0.7 1-1.3 0 0.2-0.1 0.5 0.6-0.2 0.6-0.7-0.2-0.2 0.1-0.6 6.2-6.8 17-12.3 28.1-12.5 0.4-0.3 1.1-0.7 1.9-0.5 0 0.1-0.5 0.1-0.5 0.1 1.1-0.1 2.1-0.1 2.6 0.1 0.1-0.1-0.4-0.2 0-0.2 0.7 0.2 0.9 0 1.3 0.2-0.3 0-0.6 0-0.8 0.1 2.5 0 4.1 0.6 6.6 0.8-1.3-0.3-1.6-0.3-2.6-0.6 1.1 0.2 1.6 0.4 2.1 0.3-0.2 0-0.1-0.3 0.1-0.2 2 0.5 2.2 0.7 4.3 1.4 0.2-0.2-0.9-0.3-1.2-0.6 2 0.7 3.8 1.2 5 2-0.4-0.3-1.6-0.7-2.5-1.1-0.1 0.1 0.3 0.2 0.4 0.4-1-0.5-2.4-1-3.8-1.2 1.2 0.3 2 0.7 2.5 0.9-1.1-0.2-2.5-0.9-4.1-1.2 2.6 0.8 7.5 2.6 10.5 4.2-1.1-0.7-2.4-1.2-3.1-1.6 0.6 0.1 1.3 0.5 1.3 0.3 0.7 0.3 1.6 1 2.1 1.1-0.9-0.6-2.7-1.5-3.3-1.8 7.5 3.4 14.2 9.1 18.5 16.4 0.4 0.7 1 2.3 1.5 2.5-0.1-0.5-0.5-0.8-0.9-1.6 0.2 0 0.2-0.3 0-0.6-0.4-0.5 0 0.4-0.4-0.1-1.8-3.3-4-6.2-7.4-9.4 1.9 1.8 0.5 0.5 0.1-0.1 2.6 2.3 5.6 6.2 6.9 8.2-0.2-0.3-0.3-0.5-0.2-0.5 2.4 4.1 3.9 7.8 5.4 13.1 0.1 0.1 0-0.4 0.2-0.1 1 4.2 1.3 7.7 1.2 10.9 0.8-5.4-1-13.8-4.2-20.4-0.4-0.8-0.4-0.2-0.8-1.1 0-0.3-0.3-0.9-0.5-1.3-4-6.6-8.9-11.3-14.7-15 0.4 0.2 1.2 0.8 1.2 0.7-10.8-7.1-23.3-8.1-33.6-5.9-0.7 0.3-1 0.6-1.8 1 1.5-0.5 2.4-0.6 3.8-0.9 0.3-0.3-1.3 0.1-0.6-0.2 0.1 0.1 1.4-0.2 1.7-0.1 0 0.1-0.4 0.2-0.5 0.3 3.3-0.7 6.7-0.8 9.6-0.6-1.7 0.1-4.8-0.2-5.8 0.3 1-0.1 2.4-0.2 3.3-0.1-1.2 0-3.4 0.1-4.4 0.2-0.1-0.1 1.6-0.3 0.5-0.3-0.5 0.1-1.3 0.1-1.6 0.4-8.6 0.8-17 5.3-22.9 10.6-1.2 1-2.6 2.1-3.5 3.2-2.2 2.5-3.6 5-5.2 7.2 1-2.1 3.2-5.3 5.8-8 2.6-2.7 5.4-5 6.9-6.2 0 0.4 2.4-1.5 3.3-2.1-0.6 0.5 0.4-0.2 0.6-0.1 3.2-1.9 5.8-2.6 8.7-3.7-0.7 0.2-1.3 0.4-1.4 0.3 0.7-0.2 1.1-0.4 1-0.5-2.8 0.8-7.2 2.7-10.7 4.8 6.3-4.3 14.3-6.9 22.2-7 7.9-0.2 15.6 1.8 21.7 5 4.1 1.8 8 5.1 11.1 8.3 0.9 0.8 0.2-0.2 1.5 1.2-0.4-0.2-0.7-0.4-0.2 0.2 0.8 0.9-0.2-0.7 1.1 0.9-0.1 0-0.5-0.5-0.5-0.3 3.5 3.1 6.2 8.7 7.8 12.4-0.4-1.5-1.4-3.6-2.2-5.1 2.4 4.4 3.2 7 4.2 10.9 0.4 0.3-0.2-1.4 0.2-0.6 0.1 0.6 0.2 2.5 0.6 2.8-0.3-1.9-0.8-4.2-1.2-4.6 0.3 0.2-0.5-2.3-1-2.9-0.2-1.6-1.6-4.4-2.8-6.5-4.3-8.4-12-15.3-20.6-19.1 0-0.2-0.5-0.4-0.7-0.6-8.5-3.6-18.7-4.6-28.5-2.3-9.9 2.4-19.2 8.1-25.8 16.3 0.3-1 2.8-2.9 2.9-3.7-2.9 3.1-6 7.2-8.1 11.6-2.2 4.4-3.4 8.9-3.9 12.2" fill="#89939e" fill-rule="nonzero" stroke="none" stroke-width="1" stroke-linecap="butt" stroke-linejoin="miter" stroke-miterlimit="10" stroke-dasharray="" stroke-dashoffset="0" font-family="none" font-weight="none" font-size="none" text-anchor="none" style="mix-blend-mode: normal" data-fill-palette-color="tertiary"></path></g><g transform="matrix(1,0,0,1,48.000000000000014,144.08796564935872)"><svg viewBox="0 0 223.99999999999997 71.82406870128256" height="71.82406870128256" width="223.99999999999997"><g><svg viewBox="0 0 416.83696184820633 133.6559222545512" height="71.82406870128256" width="223.99999999999997"><g><rect width="8.72489312595081" height="97.23239352129573" x="246.84003436112778" y="18.211764366627733" fill="#89939e" opacity="1" stroke-width="0" stroke="transparent" fill-opacity="1" class="rect-r$-0" data-fill-palette-color="primary" rx="1%" id="r$-0" data-palette-color="#89939e"></rect></g><g transform="matrix(1,0,0,1,0,18.453635992302594)"><svg viewBox="0 0 224 96.74865026994601" height="96.74865026994601" width="224"><g id="textblocktransform"><svg viewBox="0 0 224 96.74865026994601" height="96.74865026994601" width="224" id="textblock"><g><svg viewBox="0 0 224 96.74865026994601" height="96.74865026994601" width="224"><g transform="matrix(1,0,0,1,0,0)"><svg width="224" viewBox="2.4 -36 83.89999999999999 36" height="96.74865026994601" data-palette-color="#89939e"><g class="wordmark-text-0" data-fill-palette-color="primary" id="text-0"><path d="M30.05-27.35L30.05-27.35Q30.05-25.45 29.18-23.8 28.3-22.15 26.8-21.05 25.3-19.95 23.35-19.7L23.35-19.7 23.35-19.5Q27.25-18.7 29.5-16.2 31.75-13.7 31.75-10.05L31.75-10.05Q31.75-7.25 30.28-4.88 28.8-2.5 26.55-1.35L26.55-1.35Q25.15-0.65 23.1-0.33 21.05 0 17.35 0L17.35 0 2.4 0 2.4-2.15 6.6-3.2 6.6-32.8 2.4-33.85 2.4-36 19.2-36Q24.45-36 27.3-33.45L27.3-33.45Q28.6-32.25 29.33-30.65 30.05-29.05 30.05-27.35ZM18-17.35L18-17.35 11.6-17.35 11.6-3 17.1-3Q19.4-3 20.8-3.25 22.2-3.5 23.15-4.05L23.15-4.05Q24.5-4.85 25.35-6.45 26.2-8.05 26.2-10.3L26.2-10.3Q26.2-12.2 25.55-13.63 24.9-15.05 23.9-15.9L23.9-15.9Q23-16.65 21.6-17 20.2-17.35 18-17.35ZM18.05-33.1L11.6-33.1 11.6-20.25 17.85-20.25Q21.35-20.25 23-22L23-22Q23.75-22.8 24.3-24.05 24.85-25.3 24.85-26.85L24.85-26.85Q24.85-28.4 24.3-29.63 23.75-30.85 23-31.6L23-31.6Q21.5-33.1 18.05-33.1L18.05-33.1ZM70.85-4.7L71.05-4.7 78.8-32.85 74.85-33.85 74.85-36 86.3-36 86.3-33.85 82.15-32.8 72.65 0 67.45 0 60.1-24.05 53.45 0 48.25 0 37.85-32.8 33.95-33.85 33.95-36 48.15-36 48.15-33.85 43.35-32.8 51.6-4.7 51.8-4.7 58.6-29.8 57.95-32.8 54.05-33.85 54.05-36 67.25-36 67.25-33.85 62.65-32.8 70.85-4.7Z" fill="#89939e" data-fill-palette-color="primary"></path></g></svg></g></svg></g></svg></g></svg></g><g transform="matrix(1,0,0,1,278.40496184820637,0)"><svg viewBox="0 0 138.432 133.6559222545512" height="133.6559222545512" width="138.432"><g><svg xmlns="http://www.w3.org/2000/svg" viewBox="5 6.639841843348242 89.98380739705202 86.87925310353744" x="0" y="0" height="133.6559222545512" width="138.432" class="icon-icon-0" data-fill-palette-color="accent" id="icon-0"><path class="cls-1" d="M92 19.11a1.57 1.57 0 0 0-0.18-0.44 24.4 24.4 0 0 0-20.47-12A1.78 1.78 0 0 0 71 6.64 24.41 24.41 0 0 0 50.16 18.78 1.49 1.49 0 0 0 50 19.91a1.47 1.47 0 0 0 0.7 0.91L68 30.73l-17.31 10a1.52 1.52 0 0 0-0.7 0.91 1.54 1.54 0 0 0 0.16 1.15 24.44 24.44 0 0 0 20.4 12 1.69 1.69 0 0 0 0.45 0.07h0A24.39 24.39 0 0 0 91.59 43.07a1.69 1.69 0 0 0 0.28-0.32A24.44 24.44 0 0 0 92 19.11Zm-3 0.72a1.31 1.31 0 0 0 0.15 0.37A21.4 21.4 0 0 1 90 39.87l-17.48-10V9.75A21.42 21.42 0 0 1 89.06 19.83ZM69.43 9.71l0.07 18.42L53.55 19A21.41 21.41 0 0 1 69.43 9.71Zm2 42.09a1.75 1.75 0 0 0-0.4 0 21.44 21.44 0 0 1-17.47-9.22L71 32.45l17.41 10A21.41 21.41 0 0 1 71.41 51.8ZM14.08 41.27a5.69 5.69 0 1 1 10.35-4.5 5.78 5.78 0 0 1 0.34 1.92 5.66 5.66 0 0 1-10.69 2.58ZM60.62 29.42L41.05 18.13A1.51 1.51 0 0 0 39.91 18a1.54 1.54 0 0 0-0.91 0.71 24.45 24.45 0 0 0-3 14.54 2.55 2.55 0 0 0-3.55 0.46L23.29 45.34 12 45.37A5.23 5.23 0 0 0 7.06 50s0 0 0 0.06L5.86 60.82a0.85 0.85 0 0 0 0 0.16L5 68.78A2.25 2.25 0 0 0 7.3 71 2.36 2.36 0 0 0 10 69.23l1.52-14c0.18 0 0.36 0.05 0.54 0.06V90.13a3.21 3.21 0 1 0 6.42 0V69.81h1.2V90.13a3.21 3.21 0 1 0 6.41 0V49.9c0.16-0.12 10.36-13 10.36-13s0.09-0.14 0.14-0.21A23.89 23.89 0 0 0 39.1 42.8a1.56 1.56 0 0 0 0.91 0.7 1.74 1.74 0 0 0 0.39 0 1.44 1.44 0 0 0 0.75-0.21L60.62 32a1.49 1.49 0 0 0 0.75-1.29A1.53 1.53 0 0 0 60.62 29.42ZM44.18 38.64a2.1 2.1 0 1 1 2.09-2.09A2.1 2.1 0 0 1 44.18 38.64Zm3-7.46c-1.09 0.72-1.36 1-1.38 2.29H42.45v-1a3.32 3.32 0 0 1 1.69-2.91c0.86-0.59 1.68-1 1.68-2.08a1.27 1.27 0 0 0-1.36-1.28A1.69 1.69 0 0 0 42.65 28v0.4H39c0-3.31 2.22-5.22 5.49-5.22 2.62 0 5.24 1.39 5.24 4.28C49.72 29.44 48.74 30.18 47.14 31.18Z" fill="#dedede" data-fill-palette-color="accent"></path></svg></g></svg></g></svg></g></svg></g></svg></g><defs></defs></svg><rect width="320" height="360" fill="none" stroke="none" visibility="hidden"></rect></g></svg></g></svg>